<svg 
          width="13.874056816101074" 
          height="24.237781524658203" fill="none" 
          xmlns="http://www.w3.org/2000/svg">
          <path d="M 13.397742862187553 0.47434451709497943 C 13.247762007428516 0.32398404359017174 13.069590562668237 0.20468931412765148 12.87343436956324 0.12329348800496326 C 12.677278176458243 0.041897661882275034 12.466989800835043 -1.1472304474944238e-15 12.254616226676928 0 C 12.042242652518814 -1.1472304474944238e-15 11.831955508725057 0.041897661882275034 11.63579931562006 0.12329348800496326 C 11.439643122515063 0.20468931412765148 11.261472909584224 0.32398404359017174 11.111492054825188 0.47434451709497943 L 0.3777404983230794 11.208094645558406 C 0.2579984002276076 11.327591462393963 0.1629994586500324 11.469531035229457 0.09818173382795603 11.625788256409416 C 0.033364009005879644 11.782045477589376 0 11.949551995025848 0 12.118719538054561 C 0 12.287887081083275 0.033364009005879644 12.455393598519745 0.09818173382795603 12.611650819699705 C 0.1629994586500324 12.767908040879664 0.2579984002276076 12.90984761371516 0.3777404983230794 13.029344430550717 L 11.111492054825188 23.763096098800784 C 11.744408793630077 24.396012771559963 12.764826123382663 24.396012771559963 13.397742862187553 23.763096098800784 C 14.030659600992442 23.130179426041604 14.030659600992442 22.109762202770934 13.397742862187553 21.476845530011754 L 4.046074375460546 12.112261056965238 L 13.410657362055217 2.747677815748035 C 14.03065740679625 2.1276778357048376 14.030659600992442 1.0943444971381766 13.397742862187553 0.47434451709497943 Z" fill="rgb(255,255,255)"/>
        </svg>