<svg 
          width="362" 
          height="87" fill="Colors(0xfA2BCAE)" 
          xmlns="http://www.w3.org/2000/svg">
          <path d="M 0 21.75 L 15.083333969116211 19.9375 C 30.166667938232422 18.125 64.83333206176758 3 95 3 C 125.16666793823242 3 150.83333206176758 18.125 181 23.5625 C 211.16666793823242 29 241.33333206176758 36.25 271.5 32.625 C 301.6666679382324 29 331.83335304260254 14.5 346.91668701171875 7.25 L 362 0 L 362 87 L 346.91668701171875 87 C 331.83335304260254 87 301.6666679382324 87 271.5 87 C 241.33333206176758 87 211.16666793823242 87 181 87 C 150.83333206176758 87 120.66666793823242 87 90.5 87 C 60.33333206176758 87 30.166667938232422 87 15.083333969116211 87 L 0 87 L 0 21.75 Z" fill="rgb(162.00000554323196,188.0000039935112,174.00000482797623)"/>
        </svg>